# File created by Blade
# Date/Time:  Tue Jan 27 19:32:37 2015
# Frame Rate: 120.000 fps
#------------------------------------------------------
:FULLY-SPECIFIED
:DEGREES
2998
root 3.341305 32.186992 0.406700 -5.438203 0.276680 0.006815
Spine 1.580091 -7.794565 -0.613863
Head 29.417687 -36.723705 -13.200891
LeftShoulder -6.079674 -4.973732 26.263527
LeftArm -0.234570 40.490087 -99.371176
LeftForeArm 4.018138 -0.000000 11.639651
LeftHand 10.161572 -0.000000 -4.624236
LeftHandThumb1 -26.253704 0.000000 33.147579
RightShoulder -20.891339 -18.252058 -30.749086
RightArm -17.111007 65.688764 48.652873
RightForeArm 4.313360 0.000000 54.302369
RightHand 26.302546 -0.000000 -25.580591
RightHandThumb1 -24.326973 -0.000000 -32.862282
LeftUpLeg 13.309474 3.555631 -0.166175
LeftLeg 2.011717 -0.000000 -0.000000
LeftFoot -21.006465 15.938613 -23.300886
LeftToeBase 16.608992 -0.000000 -0.000000
RightUpLeg 11.607076 -7.403487 1.890421
RightLeg 1.399404 -0.000000 -0.000000
RightFoot -14.961462 -14.342411 14.907219
RightToeBase 11.775672 -0.000000 -0.000000
2999
root 3.340254 32.187561 0.402459 -5.430802 0.290496 0.006120
Spine 1.589135 -7.815188 -0.630073
Head 29.353457 -36.713173 -13.180379
LeftShoulder -6.084664 -4.963237 26.286236
LeftArm -0.321013 40.534864 -99.530023
LeftForeArm 4.037908 -0.000000 11.664080
LeftHand 10.111807 -0.000000 -4.490940
LeftHandThumb1 -26.253704 0.000000 33.147579
RightShoulder -20.911510 -18.328909 -30.674015
RightArm -17.228979 66.060124 48.429219
RightForeArm 4.618842 -0.000000 55.933956
RightHand 26.389278 -0.000000 -25.630792
RightHandThumb1 -24.326973 -0.000000 -32.862282
LeftUpLeg 13.283072 3.560407 -0.159842
LeftLeg 2.032407 -0.000000 -0.000000
LeftFoot -20.998290 15.911428 -23.298176
LeftToeBase 16.581423 -0.000000 -0.000000
RightUpLeg 11.591709 -7.388088 1.899211
RightLeg 1.400899 -0.000000 -0.000000
RightFoot -14.962656 -14.381219 14.889756
RightToeBase 11.792922 -0.000000 -0.000000
3000
root 3.339711 32.188246 0.397886 -5.417942 0.305405 0.008717
Spine 1.588237 -7.815865 -0.646064
Head 29.308996 -36.713796 -13.166072
LeftShoulder -6.072424 -4.938014 26.305700
LeftArm -0.384680 40.621506 -99.659790
LeftForeArm 3.934659 -0.000000 11.710063
LeftHand 10.206595 -0.000000 -4.675786
LeftHandThumb1 -26.253704 0.000000 33.147579
RightShoulder -20.977912 -18.435580 -30.581272
RightArm -17.202913 66.461413 48.346863
RightForeArm 4.998602 -0.000000 57.632847
RightHand 26.501697 -0.000000 -25.530237
RightHandThumb1 -24.326973 -0.000000 -32.862282
LeftUpLeg 13.257749 3.543089 -0.163944
LeftLeg 2.034671 -0.000000 -0.000000
LeftFoot -20.983617 15.915728 -23.283128
LeftToeBase 16.606622 -0.000000 -0.000000
RightUpLeg 11.568048 -7.386756 1.902454
RightLeg 1.408983 -0.000000 -0.000000
RightFoot -14.967223 -14.382672 14.920128
RightToeBase 11.834925 -0.000000 -0.000000
3001
root 3.339627 32.188899 0.394008 -5.410472 0.316396 0.008783
Spine 1.594056 -7.836341 -0.654690
Head 29.256778 -36.703326 -13.157161
LeftShoulder -6.078208 -4.919729 26.314491
LeftArm -0.482005 40.730028 -99.810589
LeftForeArm 3.892538 0.000000 11.760936
LeftHand 10.131294 -0.000000 -4.593730
LeftHandThumb1 -26.253704 0.000000 33.147579
RightShoulder -21.045064 -18.486139 -30.515035
RightArm -17.233414 66.866291 48.215688
RightForeArm 5.307974 -0.000000 59.387297
RightHand 26.691287 -0.000000 -25.554969
RightHandThumb1 -24.326973 -0.000000 -32.862282
LeftUpLeg 13.240786 3.544299 -0.162539
LeftLeg 2.039168 -0.000000 -0.000000
LeftFoot -20.950398 15.876515 -23.305997
LeftToeBase 16.474493 -0.000000 -0.000000
RightUpLeg 11.549655 -7.388152 1.904560
RightLeg 1.418003 -0.000000 -0.000000
RightFoot -14.972382 -14.394365 14.925358
RightToeBase 11.860528 -0.000000 -0.000000
3002
root 3.338974 32.189622 0.389588 -5.399471 0.330038 0.007110
Spine 1.593523 -7.859374 -0.656603
Head 29.213516 -36.677960 -13.164291
LeftShoulder -6.081221 -4.890586 26.313458
LeftArm -0.569529 40.800271 -99.941633
LeftForeArm 3.890135 -0.000000 11.831407
LeftHand 10.165384 -0.000000 -4.586286
LeftHandThumb1 -26.253704 0.000000 33.147579
RightShoulder -21.131330 -18.493572 -30.474506
RightArm -17.359042 67.237655 48.019592
RightForeArm 5.523019 -0.000000 61.251343
RightHand 26.879173 0.000000 -25.083447
RightHandThumb1 -24.326973 -0.000000 -32.862282
LeftUpLeg 13.217913 3.498903 -0.171963
LeftLeg 2.047427 -0.000000 -0.000000
LeftFoot -20.996977 15.931534 -23.305004
LeftToeBase 16.550965 -0.000000 -0.000000
RightUpLeg 11.522990 -7.397086 1.909655
RightLeg 1.434338 -0.000000 -0.000000
RightFoot -14.961279 -14.411168 14.906841
RightToeBase 11.828669 -0.000000 -0.000000
3003
root 3.337596 32.190072 0.385598 -5.390880 0.337792 0.005310
Spine 1.594217 -7.878837 -0.669024
Head 29.185572 -36.665450 -13.152197
LeftShoulder -6.077068 -4.869266 26.328264
LeftArm -0.674114 40.855154 -100.086243
LeftForeArm 3.886741 -0.000000 11.901619
LeftHand 10.173885 -0.000000 -4.623920
LeftHandThumb1 -26.253704 0.000000 33.147579
RightShoulder -21.212362 -18.416826 -30.439307
RightArm -17.534092 67.493001 47.782318
RightForeArm 5.700163 0.000000 63.188196
RightHand 26.731667 -0.000000 -25.045966
RightHandThumb1 -24.326973 -0.000000 -32.862282
LeftUpLeg 13.199910 3.511217 -0.162418
LeftLeg 2.040871 -0.000000 -0.000000
LeftFoot -20.967166 15.912271 -23.297452
LeftToeBase 16.594200 -0.000000 -0.000000
RightUpLeg 11.504196 -7.426543 1.916292
RightLeg 1.426908 -0.000000 -0.000000
RightFoot -14.769892 -14.453366 14.604097
RightToeBase 11.218066 -0.000000 -0.000000
3004
root 3.337894 32.190957 0.383055 -5.396011 0.346411 0.008968
Spine 1.607106 -7.904631 -0.677814
Head 29.145990 -36.637540 -13.141968
LeftShoulder -6.078104 -4.864864 26.323142
LeftArm -0.803179 40.979942 -100.220143
LeftForeArm 3.846841 -0.000000 12.011465
LeftHand 10.101981 -0.000000 -4.761137
LeftHandThumb1 -26.253704 0.000000 33.147579
RightShoulder -21.299759 -18.453927 -30.374682
RightArm -17.517190 67.847430 47.738302
RightForeArm 5.673746 -0.000000 65.179651
RightHand 26.786409 -0.000000 -24.857118
RightHandThumb1 -24.326973 -0.000000 -32.862282
LeftUpLeg 13.207337 3.499683 -0.168563
LeftLeg 2.022726 -0.000000 -0.000000
LeftFoot -20.954887 15.917049 -23.308530
LeftToeBase 16.639413 -0.000000 -0.000000
RightUpLeg 11.497038 -7.429189 1.912571
RightLeg 1.442198 -0.000000 -0.000000
RightFoot -14.774646 -14.459911 14.589098
RightToeBase 11.268837 -0.000000 -0.000000
